<?xml version="1.0" encoding="UTF-8"?>
<svg version="1.1" xmlns="http://www.w3.org/2000/svg" width="512" height="512">
<path d="M0 0 C-1.37154686 3.18419421 -2.86169983 4.97112596 -5.5625 7.125 C-8.21025666 9.20903634 -8.21025666 9.20903634 -10 12 C-10.37615126 16.13064626 -10.37615126 16.13064626 -8.875 19.875 C-5.90079585 21.65952249 -4.43683798 21.64846 -1 21 C1.91050703 18.93447888 4.40512536 16.44250656 7 14 C28.3584734 -4.24223712 52.1773644 -10.70560218 80 -9 C99.06873763 -7.21887683 117.02593455 1.82606098 130.78125 14.921875 C135.303162 19.42898411 135.303162 19.42898411 141.125 21.375 C144.19380972 21.19032214 144.19380972 21.19032214 147 19 C148.36434855 16.33328612 148.36434855 16.33328612 148 13 C145.49434873 9.20203576 142.44957178 6.04480479 138.76171875 3.38671875 C138.18035156 2.92910156 137.59898437 2.47148437 137 2 C137 1.34 137 0.68 137 0 C158.09170311 -10.90333805 181.48104126 -12.59730082 204.078125 -5.484375 C236.79457809 5.64951331 258.2436225 29.47197484 273.80078125 59.47265625 C288.16528899 88.74312767 293.44065249 120.96041136 293.375 153.3125 C293.37478851 154.27711151 293.37457703 155.24172302 293.37435913 156.23556519 C293.33968789 172.12863134 292.38258176 187.41970702 289 203 C288.81276367 203.87253418 288.62552734 204.74506836 288.43261719 205.64404297 C282.257577 233.37839878 270.28259875 262.59594857 250 283 C248.700625 284.3303125 248.700625 284.3303125 247.375 285.6875 C246.59125 286.450625 245.8075 287.21375 245 288 C244.56171875 288.495 244.1234375 288.99 243.671875 289.5 C229.26549759 305.21604808 205.06439517 315.70444884 183.93066406 317.140625 C166.81056832 317.86944985 151.96366427 315.64951692 137 307 C139.20636728 304.12358626 141.2168629 301.64729159 144.1875 299.5625 C147.16410777 297.22745587 147.16410777 297.22745587 148.1875 294 C148.25056048 290.81295935 148.25056048 290.81295935 145.9375 288.0625 C143.19774328 285.69447422 143.19774328 285.69447422 140.0703125 286.12109375 C136.51028789 287.14018477 135.34798772 288.23968007 132.9375 291 C118.03337548 306.7293529 95.97563437 316.34625586 74.35546875 317.23828125 C49.21255312 317.78089909 25.86761861 311.11147168 7.19238281 293.56738281 C6.17488963 292.59046256 5.1706213 291.59950748 4.18261719 290.59277344 C0.93842374 287.40314246 -1.42810507 286.14047722 -6 286 C-8.52006844 287.43661311 -8.52006844 287.43661311 -10 290 C-10.55308233 292.87529955 -10.55308233 292.87529955 -10 296 C-7.84923893 298.87503243 -7.84923893 298.87503243 -5 301.375 C-4.071875 302.24898438 -3.14375 303.12296875 -2.1875 304.0234375 C-1.465625 304.67570312 -0.74375 305.32796875 0 306 C-3.15836617 309.52975988 -6.79196014 310.38218529 -11.25 311.5625 C-12.0534082 311.77865967 -12.85681641 311.99481934 -13.68457031 312.2175293 C-39.25415262 318.85743762 -66.68862395 317.44587378 -89.8125 303.875 C-97.39467243 299.19059456 -103.77081844 293.33068802 -110 287 C-110.89589844 286.1028125 -111.79179688 285.205625 -112.71484375 284.28125 C-119.22035923 277.46499341 -124.25011733 270.08763806 -129 262 C-129.34272949 261.4229834 -129.68545898 260.8459668 -130.03857422 260.25146484 C-149.24189465 227.49826682 -155.3205205 189.54991919 -155.4375 152.125 C-155.44376404 151.19016785 -155.45002808 150.25533569 -155.45648193 149.29217529 C-155.53138827 131.62087893 -153.83145621 114.09997936 -149.75 96.875 C-149.54093018 95.98087402 -149.33186035 95.08674805 -149.11645508 94.16552734 C-143.13431712 69.57493782 -132.51819061 46.32376115 -116 27 C-115.32453125 26.17886719 -114.6490625 25.35773438 -113.953125 24.51171875 C-98.3767017 6.23500309 -75.75761927 -5.70267918 -52 -9 C-51.25492187 -9.12117187 -50.50984375 -9.24234375 -49.7421875 -9.3671875 C-32.41711012 -11.7115049 -15.46953924 -7.84733384 0 0 Z M-72.375 47.5625 C-74.59914079 50.89871119 -74.29227819 53.0361237 -74 57 C-72.91386933 59.97996333 -72.91386933 59.97996333 -71.24609375 62.82421875 C-70.64603516 63.92209717 -70.04597656 65.01997559 -69.42773438 66.15112305 C-68.76464734 67.33009789 -68.1012275 68.5088856 -67.4375 69.6875 C-66.7583184 70.91692622 -66.0806078 72.14716611 -65.40429688 73.37817383 C-64.35026239 75.29563336 -63.29487423 77.2122402 -62.23373413 79.1257782 C-59.73371951 83.63727816 -57.30355428 88.181149 -54.91015625 92.75 C-54.24758901 94.0095803 -53.58491139 95.26910254 -52.92211914 96.52856445 C-51.67105662 98.90654545 -50.42809732 101.28820254 -49.18920898 103.67260742 C-41.56605856 118.06787783 -32.94673828 128.01496921 -17 133 C-7.11757391 135.25207177 2.13669062 133.70394452 11.875 131.4375 C13.04595215 131.1701001 14.2169043 130.9027002 15.42333984 130.62719727 C22.923865 128.86089853 30.3048598 126.84486158 37.625 124.4375 C38.44597168 124.16929443 39.26694336 123.90108887 40.11279297 123.62475586 C47.59122838 121.04260242 56.28434381 117.60191867 61 111 C61.25411568 107.36174137 61.25411568 107.36174137 60 104 C56.63318129 100.58267901 52.45031026 100.00699462 47.9375 99 C13.79656998 90.57264035 -20.30628944 71.77694843 -50.3515625 53.81640625 C-51.21797363 53.30182861 -52.08438477 52.78725098 -52.97705078 52.25708008 C-54.60565318 51.28423678 -56.22706609 50.29920689 -57.83935547 49.29956055 C-62.77492543 46.33810862 -67.04586176 44.056488 -72.375 47.5625 Z M193.125 50.9375 C159.80706573 70.61881537 123.21772805 91.90333885 85.23901367 100.43115234 C82.20360736 101.1488216 80.29623441 101.70256868 78.06640625 103.94140625 C76.54255978 106.88304395 76.45642526 108.73855156 77 112 C81.07698486 115.97952705 85.98682412 118.09476781 91.125 120.375 C92.44636963 120.9620874 92.44636963 120.9620874 93.79443359 121.56103516 C113.95637832 130.32006021 138.28058926 138.58513006 160.0625 131.1875 C164.06085571 129.54669328 167.54873903 127.62953217 171 125 C172.2065625 124.195625 172.2065625 124.195625 173.4375 123.375 C181.77946865 115.6434193 186.58763175 104.58976478 191.75 94.625 C193.33279805 91.58819837 194.9196784 88.55354521 196.5078125 85.51953125 C196.89436005 84.77972519 197.28090759 84.03991913 197.6791687 83.2776947 C199.92175876 79.00119914 202.22503096 74.76968283 204.6171875 70.57421875 C205.13442383 69.66526855 205.65166016 68.75631836 206.18457031 67.81982422 C207.11159406 66.20617441 208.0501853 64.59908668 209.00292969 63.00048828 C211.57789638 58.50303049 212.63797473 55.32974725 212 50 C210.52006844 47.43661311 210.52006844 47.43661311 208 46 C201.92702952 45.04881185 198.09956367 47.89340016 193.125 50.9375 Z M-72.375 148.5625 C-74.63601096 151.95401643 -74.32851766 153.94422637 -74 158 C-73.09655221 161.09098931 -71.86270803 163.9943677 -70.5625 166.9375 C-70.20269043 167.76725342 -69.84288086 168.59700684 -69.47216797 169.4519043 C-61.19462401 188.13616642 -50.17186338 204.32912734 -36 219 C-34.68902344 220.40572266 -34.68902344 220.40572266 -33.3515625 221.83984375 C-16.18048145 239.79142849 6.26340329 251.29697435 30 258 C34.33034194 254.15080717 36.6560756 250.27710354 39 245 C39.25394531 245.81984375 39.50789063 246.6396875 39.76953125 247.484375 C40.28580078 249.10085938 40.28580078 249.10085938 40.8125 250.75 C41.14894531 251.81734375 41.48539062 252.8846875 41.83203125 253.984375 C43.31054745 257.9109435 43.31054745 257.9109435 46 261 C48.74600383 261.63346334 51.15658519 262.01805497 53.9375 262.25 C54.70094727 262.32516846 55.46439453 262.40033691 56.25097656 262.4777832 C75.12028559 264.42591413 75.12028559 264.42591413 93 260 C94.3669993 258.33614082 94.3669993 258.33614082 95.1875 256.3125 C95.50589844 255.60738281 95.82429687 254.90226562 96.15234375 254.17578125 C97.33013098 251.15261312 98.21312454 248.14750183 99 245 C99.38671875 245.68707031 99.7734375 246.37414062 100.171875 247.08203125 C100.69265625 247.98308594 101.2134375 248.88414062 101.75 249.8125 C102.26046875 250.70582031 102.7709375 251.59914063 103.296875 252.51953125 C105.5925038 255.91407281 105.5925038 255.91407281 109 258 C111.88306033 257.49177827 114.21463241 256.86043842 116.9375 255.875 C117.71947754 255.60147705 118.50145508 255.3279541 119.30712891 255.04614258 C133.96434678 249.66701582 148.08467187 242.12711656 160 232 C160.83144531 231.29488281 161.66289062 230.58976562 162.51953125 229.86328125 C165.0677596 227.62806363 167.54020918 225.33210703 170 223 C170.95777344 222.10667969 171.91554688 221.21335937 172.90234375 220.29296875 C188.62824846 205.33337411 200.11416381 186.59831312 208.6875 166.75 C209.02676514 165.97624023 209.36603027 165.20248047 209.71557617 164.40527344 C211.6132362 159.80421488 212.56034366 156.06219554 212 151 C209.61186047 148.33893024 207.98446115 147.22150376 204.5 146.4375 C200.16889794 147.41199796 198.01401298 150.80410129 195.2578125 154.0546875 C183.69261456 167.47774856 167.99148537 178.21528986 150.8984375 183.23828125 C149.82396362 183.55502808 149.82396362 183.55502808 148.7277832 183.87817383 C147.3174295 184.2831993 145.90189083 184.67071226 144.48120117 185.0378418 C139.77342125 186.36141445 137.51629599 187.80617336 135 192 C133.912013 194.55854767 133.05895624 197.1541375 132.25 199.8125 C131.91935547 200.85180664 131.91935547 200.85180664 131.58203125 201.91210938 C131.04496973 203.60502068 130.52111292 205.30211158 130 207 C129.75765625 206.41992188 129.5153125 205.83984375 129.265625 205.2421875 C127.22507912 200.48614594 125.24396081 196.05495102 122 192 C118.61321008 190.66685174 115.6523455 191.11431612 112.09375 191.55859375 C97.75770417 193.2199349 83.56420003 194.36500978 69.125 194.375 C68.0110083 194.37613297 68.0110083 194.37613297 66.87451172 194.37728882 C53.92023232 194.34588557 41.10326422 193.347131 28.25439453 191.71630859 C26.96388184 191.56758301 25.67336914 191.41885742 24.34375 191.265625 C23.21130859 191.11899414 22.07886719 190.97236328 20.91210938 190.82128906 C17.897758 190.73095007 17.897758 190.73095007 15.69628906 192.79492188 C13.63514947 195.47428468 12.48066798 198.10495962 11.25 201.25 C10.82203125 202.32765625 10.3940625 203.4053125 9.953125 204.515625 C9.63859375 205.33546875 9.3240625 206.1553125 9 207 C6.47069994 203.20604991 5.43888445 199.34101131 4.09765625 195.0078125 C2.96116227 191.89357631 2.10588914 189.57238357 0 187 C-2.62763174 186.00905847 -4.97649673 185.30940053 -7.6875 184.6875 C-22.03177302 180.91269131 -34.20412279 173.87610562 -46 165 C-46.67417969 164.49984375 -47.34835938 163.9996875 -48.04296875 163.484375 C-52.7751251 159.7159759 -56.36290609 155.03629362 -60.08203125 150.29296875 C-62.44020975 147.47372072 -63.2357109 147.0830749 -66.875 146.6875 C-70.03418055 146.75946005 -70.03418055 146.75946005 -72.375 148.5625 Z " fill="#FE9B00" transform="translate(187,141)"/>
<path d="M0 0 C3.82338746 3.07533339 5.57995329 4.90049316 6.1875 9.8671875 C6.45558448 16.0498858 5.91691087 19.37977324 1.875 24.3125 C-1.18359375 26.40234375 -1.18359375 26.40234375 -4.5625 28.25 C-11.06102156 31.99613235 -14.24336393 35.28042272 -17.4375 42.125 C-19.0257222 49.48857563 -18.24528563 56.156536 -16.125 63.3125 C-17.62513097 63.16802017 -19.12509702 63.02182785 -20.625 62.875 C-21.54796875 62.78476563 -22.4709375 62.69453125 -23.421875 62.6015625 C-25.57926447 62.370859 -27.72931497 62.07185275 -29.875 61.75 C-41.6977863 60.2869007 -53.40650111 61.723551 -65.125 63.3125 C-64.64687482 44.83948168 -54.9559211 24.40617033 -42.125 11.3125 C-31.73150704 1.84129652 -14.01027091 -7.34721213 0 0 Z " fill="#FE9800" transform="translate(297.125,55.6875)"/>
</svg>
